<svg width="44" height="44" viewBox="0 0 44 44" fill="none" xmlns="http://www.w3.org/2000/svg">
<rect width="44" height="44" rx="22" fill="#FBE3C9"/>
<path d="M25.92 18.78C25.92 19.2867 25.82 19.7733 25.62 20.24C25.42 20.7067 25.16 21.16 24.84 21.6C24.52 22.0267 24.16 22.44 23.76 22.84C23.36 23.24 22.9667 23.62 22.58 23.98C22.38 24.1667 22.16 24.38 21.92 24.62C21.6933 24.8467 21.4733 25.08 21.26 25.32C21.0467 25.56 20.8533 25.7867 20.68 26C20.52 26.2 20.42 26.3667 20.38 26.5H26.34V29H17.1C17.0733 28.8533 17.06 28.6667 17.06 28.44C17.06 28.2133 17.06 28.0533 17.06 27.96C17.06 27.32 17.16 26.7333 17.36 26.2C17.5733 25.6667 17.8467 25.1733 18.18 24.72C18.5133 24.2533 18.8867 23.82 19.3 23.42C19.7267 23.02 20.1467 22.62 20.56 22.22C20.88 21.9133 21.18 21.6267 21.46 21.36C21.74 21.08 21.9867 20.8133 22.2 20.56C22.4133 20.2933 22.58 20.0333 22.7 19.78C22.82 19.5133 22.88 19.2467 22.88 18.98C22.88 18.3933 22.7133 17.98 22.38 17.74C22.0467 17.5 21.6333 17.38 21.14 17.38C20.78 17.38 20.44 17.44 20.12 17.56C19.8133 17.6667 19.5267 17.8 19.26 17.96C19.0067 18.1067 18.7867 18.26 18.6 18.42C18.4133 18.5667 18.2733 18.6867 18.18 18.78L16.7 16.7C17.2867 16.1533 17.9667 15.7067 18.74 15.36C19.5267 15 20.3667 14.82 21.26 14.82C22.0733 14.82 22.7733 14.9133 23.36 15.1C23.9467 15.2867 24.4267 15.5533 24.8 15.9C25.1867 16.2333 25.4667 16.6467 25.64 17.14C25.8267 17.62 25.92 18.1667 25.92 18.78Z" fill="#12070B"/>
</svg>
