<svg width="45" height="44" viewBox="0 0 45 44" fill="none" xmlns="http://www.w3.org/2000/svg">
<rect x="0.5" width="44" height="44" rx="22" fill="#FBE3C9"/>
<path d="M21.06 29.3C20.7 29.3 20.32 29.2733 19.92 29.22C19.52 29.18 19.1333 29.12 18.76 29.04C18.3867 28.96 18.0467 28.8733 17.74 28.78C17.4333 28.6867 17.1933 28.6 17.02 28.52L17.6 26.04C17.9467 26.1867 18.3867 26.3467 18.92 26.52C19.4667 26.68 20.14 26.76 20.94 26.76C21.86 26.76 22.5333 26.5867 22.96 26.24C23.3867 25.8933 23.6 25.4267 23.6 24.84C23.6 24.48 23.52 24.18 23.36 23.94C23.2133 23.6867 23.0067 23.4867 22.74 23.34C22.4733 23.18 22.1533 23.0733 21.78 23.02C21.42 22.9533 21.0333 22.92 20.62 22.92H19.46V20.52H20.78C21.0733 20.52 21.3533 20.4933 21.62 20.44C21.9 20.3867 22.1467 20.3 22.36 20.18C22.5733 20.0467 22.74 19.8733 22.86 19.66C22.9933 19.4333 23.06 19.1533 23.06 18.82C23.06 18.5667 23.0067 18.3467 22.9 18.16C22.7933 17.9733 22.6533 17.82 22.48 17.7C22.32 17.58 22.1267 17.4933 21.9 17.44C21.6867 17.3733 21.4667 17.34 21.24 17.34C20.6667 17.34 20.1333 17.4267 19.64 17.6C19.16 17.7733 18.72 17.9867 18.32 18.24L17.26 16.06C17.4733 15.9267 17.72 15.7867 18 15.64C18.2933 15.4933 18.6133 15.36 18.96 15.24C19.3067 15.12 19.6733 15.02 20.06 14.94C20.46 14.86 20.88 14.82 21.32 14.82C22.1333 14.82 22.8333 14.92 23.42 15.12C24.02 15.3067 24.5133 15.58 24.9 15.94C25.2867 16.2867 25.5733 16.7 25.76 17.18C25.9467 17.6467 26.04 18.16 26.04 18.72C26.04 19.2667 25.8867 19.8 25.58 20.32C25.2733 20.8267 24.86 21.2133 24.34 21.48C25.06 21.7733 25.6133 22.2133 26 22.8C26.4 23.3733 26.6 24.0667 26.6 24.88C26.6 25.52 26.4933 26.1133 26.28 26.66C26.0667 27.1933 25.7333 27.66 25.28 28.06C24.8267 28.4467 24.2467 28.7533 23.54 28.98C22.8467 29.1933 22.02 29.3 21.06 29.3Z" fill="#12070B"/>
</svg>
